<?xml version="1.0" encoding="UTF-8" standalone="no"?>
<!-- Created with Inkscape (http://www.inkscape.org/) -->

<svg
   xmlns:dc="http://purl.org/dc/elements/1.1/"
   xmlns:cc="http://creativecommons.org/ns#"
   xmlns:rdf="http://www.w3.org/1999/02/22-rdf-syntax-ns#"
   xmlns:svg="http://www.w3.org/2000/svg"
   xmlns="http://www.w3.org/2000/svg"
   xmlns:sodipodi="http://sodipodi.sourceforge.net/DTD/sodipodi-0.dtd"
   xmlns:inkscape="http://www.inkscape.org/namespaces/inkscape"
   version="1.1"
   id="svg4706"
   xml:space="preserve"
   width="236.93333"
   height="271.89334"
   viewBox="0 0 236.93333 271.89334"
   sodipodi:docname="intraverse.svg"
   inkscape:version="0.92.1 r15371"><metadata
     id="metadata4712"><rdf:RDF><cc:Work
         rdf:about=""><dc:format>image/svg+xml</dc:format><dc:type
           rdf:resource="http://purl.org/dc/dcmitype/StillImage" /><dc:title></dc:title></cc:Work></rdf:RDF></metadata><defs
     id="defs4710" /><sodipodi:namedview
     pagecolor="#ffffff"
     bordercolor="#666666"
     borderopacity="1"
     objecttolerance="10"
     gridtolerance="10"
     guidetolerance="10"
     inkscape:pageopacity="0"
     inkscape:pageshadow="2"
     inkscape:window-width="3840"
     inkscape:window-height="2160"
     id="namedview4708"
     showgrid="false"
     inkscape:zoom="1.8950478"
     inkscape:cx="118.46667"
     inkscape:cy="135.94667"
     inkscape:window-x="0"
     inkscape:window-y="0"
     inkscape:window-maximized="0"
     inkscape:current-layer="g4714" /><g
     id="g4714"
     inkscape:groupmode="layer"
     inkscape:label="ink_ext_XXXXXX"
     transform="matrix(1.3333333,0,0,-1.3333333,0,271.89333)"><g
       id="g4716"
       transform="scale(0.1)"><path
         d="M 12.2344,1657.34 V 748.371 L 1764.43,370.211 V 2039.2 L 12.2344,1657.34"
         style="fill:#2757a0;fill-opacity:1;fill-rule:nonzero;stroke:none"
         id="path4718"
         inkscape:connector-curvature="0" /><path
         d="M 413.102,1739.18 V 667.699 l 1056.358,300.02 v 461.361 l -1056.358,310.1"
         style="fill:#3d91ce;fill-opacity:1;fill-rule:nonzero;stroke:none"
         id="path4720"
         inkscape:connector-curvature="0" /><path
         d="M 609.746,1401.35 V 982.84 l 631.964,-70.59 v 574.82 l -631.964,-85.72"
         style="fill:#7ec9e5;fill-opacity:1;fill-rule:nonzero;stroke:none"
         id="path4722"
         inkscape:connector-curvature="0" /><path
         d="M 907.145,1432.31 V 960.012 L 1041.7,1000.8 v 393.17 l -134.555,38.34"
         style="fill:#ffffff;fill-opacity:1;fill-rule:nonzero;stroke:none"
         id="path4724"
         inkscape:connector-curvature="0" /><path
         d="M 0,101.129 H 22.3242 V 2.51172 H 0 V 101.129"
         style="fill:#2757a0;fill-opacity:1;fill-rule:nonzero;stroke:none"
         id="path4726"
         inkscape:connector-curvature="0" /><path
         d="m 145.039,101.129 h 21.285 l 42.739,-64.0196 v 64.0196 h 22.031 V 2.51172 h -20.27 L 167.07,67.7188 V 2.51172 H 145.039 V 101.129"
         style="fill:#2757a0;fill-opacity:1;fill-rule:nonzero;stroke:none"
         id="path4728"
         inkscape:connector-curvature="0" /><path
         d="M 379.234,81.4688 H 347.297 V 101.129 H 433.5 V 81.4688 H 401.711 V 2.51172 H 379.234 V 81.4688"
         style="fill:#2757a0;fill-opacity:1;fill-rule:nonzero;stroke:none"
         id="path4730"
         inkscape:connector-curvature="0" /><path
         d="m 585.195,56.6289 c 4.145,0 7.395,1.2305 9.762,3.6914 2.363,2.461 3.555,5.5703 3.555,9.3086 0,4.0508 -1.192,7.25 -3.555,9.6211 -2.367,2.3711 -5.617,3.5508 -9.762,3.5508 H 571.449 V 56.6289 Z m -35.484,44.5001 h 36.676 c 5.707,0 10.73,-0.809 15.078,-2.4376 4.332,-1.6328 7.953,-3.8516 10.871,-6.6523 2.898,-2.8086 5.066,-6.0899 6.496,-9.8399 1.434,-3.7383 2.148,-7.7383 2.148,-11.9687 0,-6.4102 -1.402,-12 -4.222,-16.7813 -2.809,-4.7773 -6.778,-8.6094 -11.899,-11.4609 L 626.742,2.51172 H 602.203 L 583.871,38.7383 H 571.449 V 2.51172 H 549.711 V 101.129"
         style="fill:#2757a0;fill-opacity:1;fill-rule:nonzero;stroke:none"
         id="path4732"
         inkscape:connector-curvature="0" /><path
         d="M 794.711,42.4297 782.734,79.6914 770.461,42.4297 Z m -23.516,58.6993 h 24.696 L 831.973,2.51172 H 807.574 L 800.035,25.1289 H 765.289 L 757.75,2.51172 h -23.371 l 36.816,98.61728"
         style="fill:#2757a0;fill-opacity:1;fill-rule:nonzero;stroke:none"
         id="path4734"
         inkscape:connector-curvature="0" /><path
         d="m 925.258,101.129 h 24.691 l 24.106,-72.0079 23.519,72.0079 h 23.646 L 984.988,2.51172 h -23.5 l -36.23,98.61728"
         style="fill:#2757a0;fill-opacity:1;fill-rule:nonzero;stroke:none"
         id="path4736"
         inkscape:connector-curvature="0" /><path
         d="m 1135.36,101.129 h 67.42 V 81.6211 h -45.09 V 62.3906 h 35.04 V 43.4688 h -35.04 V 22.1797 h 48.34 V 2.51172 h -70.67 V 101.129"
         style="fill:#2757a0;fill-opacity:1;fill-rule:nonzero;stroke:none"
         id="path4738"
         inkscape:connector-curvature="0" /><path
         d="m 1360.09,56.6289 c 4.15,0 7.4,1.2305 9.76,3.6914 2.37,2.461 3.56,5.5703 3.56,9.3086 0,4.0508 -1.19,7.25 -3.56,9.6211 -2.36,2.3711 -5.61,3.5508 -9.76,3.5508 h -13.74 V 56.6289 Z m -35.48,44.5001 h 36.67 c 5.71,0 10.74,-0.809 15.08,-2.4376 4.33,-1.6328 7.96,-3.8516 10.87,-6.6523 2.9,-2.8086 5.07,-6.0899 6.5,-9.8399 1.43,-3.7383 2.15,-7.7383 2.15,-11.9687 0,-6.4102 -1.4,-12 -4.22,-16.7813 -2.81,-4.7773 -6.78,-8.6094 -11.9,-11.4609 l 21.89,-39.47658 h -24.55 l -18.33,36.22658 h -12.42 V 2.51172 h -21.74 V 101.129"
         style="fill:#2757a0;fill-opacity:1;fill-rule:nonzero;stroke:none"
         id="path4740"
         inkscape:connector-curvature="0" /><path
         d="m 1522.89,31.9297 c 1.28,-1.3789 2.78,-2.7813 4.5,-4.2109 1.73,-1.4297 3.65,-2.7305 5.76,-3.918 2.13,-1.1797 4.44,-2.1406 6.96,-2.8789 2.51,-0.7422 5.2,-1.1133 8.06,-1.1133 1.67,0 3.35,0.25 5.02,0.7422 1.67,0.4883 3.21,1.2109 4.59,2.1406 1.38,0.9375 2.49,2.0781 3.33,3.3984 0.83,1.3321 1.25,2.8399 1.25,4.5196 0,3.6406 -1.77,6.4804 -5.31,8.5 -3.56,2.0195 -9.18,4.0117 -16.86,5.9804 -3.75,0.8907 -7.22,2.1719 -10.43,3.8516 -3.21,1.668 -5.97,3.6875 -8.28,6.0586 -2.32,2.3594 -4.12,5.0781 -5.4,8.1289 -1.28,3.0625 -1.92,6.4609 -1.92,10.1992 0,4.1407 0.75,8.043 2.22,11.6836 1.48,3.6485 3.71,6.8789 6.72,9.6875 3.01,2.8125 6.75,5.0196 11.25,6.6528 4.47,1.628 9.78,2.437 15.89,2.437 5.03,0 9.47,-0.519 13.3,-1.551 3.85,-1.027 7.13,-2.2692 9.84,-3.6989 2.7,-1.4297 4.92,-2.9102 6.64,-4.4297 1.73,-1.5313 3.04,-2.7383 3.92,-3.6289 l -12.86,-14.1914 c -1.08,0.8906 -2.34,1.8515 -3.77,2.8906 -1.43,1.0312 -3.02,1.9922 -4.8,2.8789 -1.78,0.8828 -3.73,1.6211 -5.84,2.2109 -2.12,0.5899 -4.36,0.9024 -6.72,0.9024 -1.58,0 -3.13,-0.25 -4.67,-0.75 -1.53,-0.4922 -2.9,-1.1524 -4.13,-2 -1.24,-0.8321 -2.22,-1.8203 -2.96,-2.9531 -0.74,-1.1407 -1.11,-2.3399 -1.11,-3.6172 0,-3.3516 1.77,-6.0625 5.33,-8.1328 3.54,-2.0782 8.42,-3.7969 14.64,-5.1797 3.63,-0.8789 7.21,-2.0977 10.7,-3.6172 3.5,-1.5313 6.63,-3.5313 9.4,-5.9922 2.76,-2.4688 4.97,-5.5 6.64,-9.1016 1.69,-3.5898 2.52,-7.957 2.52,-13.0781 0,-4.4414 -0.98,-8.5312 -2.96,-12.2695 -1.96,-3.75 -4.65,-7 -8.06,-9.76175 -3.39,-2.75781 -7.37,-4.91016 -11.96,-6.42969 C 1558.74,0.761719 1553.78,0 1548.46,0 c -4.93,0 -9.41,0.460938 -13.45,1.39844 -4.05,0.9414 -7.69,2.17187 -10.95,3.70312 -3.24,1.52735 -6.17,3.26953 -8.79,5.25004 -2.61,1.9687 -4.85,3.9882 -6.73,6.0586 l 14.35,15.5195"
         style="fill:#2757a0;fill-opacity:1;fill-rule:nonzero;stroke:none"
         id="path4742"
         inkscape:connector-curvature="0" /><path
         d="m 1706.37,101.129 h 67.42 V 81.6211 H 1728.7 V 62.3906 h 35.04 V 43.4688 H 1728.7 V 22.1797 h 48.34 V 2.51172 h -70.67 V 101.129"
         style="fill:#2757a0;fill-opacity:1;fill-rule:nonzero;stroke:none"
         id="path4744"
         inkscape:connector-curvature="0" /></g></g></svg>