<?xml version="1.0" encoding="UTF-8" standalone="no"?>
<svg
   xmlns:dc="http://purl.org/dc/elements/1.1/"
   xmlns:cc="http://creativecommons.org/ns#"
   xmlns:rdf="http://www.w3.org/1999/02/22-rdf-syntax-ns#"
   xmlns:svg="http://www.w3.org/2000/svg"
   xmlns="http://www.w3.org/2000/svg"
   xmlns:sodipodi="http://sodipodi.sourceforge.net/DTD/sodipodi-0.dtd"
   xmlns:inkscape="http://www.inkscape.org/namespaces/inkscape"
   version="1.1"
   id="图层_1"
   x="0px"
   y="0px"
   viewBox="0 0 321.70002 88.7"
   xml:space="preserve"
   sodipodi:docname="test.svg"
   width="321.70001"
   height="88.699997"
   inkscape:version="0.92.3 (2405546, 2018-03-11)"><metadata
   id="metadata3827"><rdf:RDF><cc:Work
       rdf:about=""><dc:format>image/svg+xml</dc:format><dc:type
         rdf:resource="http://purl.org/dc/dcmitype/StillImage" /></cc:Work></rdf:RDF></metadata><defs
   id="defs3825" /><sodipodi:namedview
   pagecolor="#ffffff"
   bordercolor="#666666"
   borderopacity="1"
   objecttolerance="10"
   gridtolerance="10"
   guidetolerance="10"
   inkscape:pageopacity="0"
   inkscape:pageshadow="2"
   inkscape:window-width="3706"
   inkscape:window-height="2049"
   id="namedview3823"
   showgrid="false"
   inkscape:zoom="9.1235784"
   inkscape:cx="190.89999"
   inkscape:cy="12.400003"
   inkscape:window-x="134"
   inkscape:window-y="55"
   inkscape:window-maximized="1"
   inkscape:current-layer="图层_1" />
<style
   type="text/css"
   id="style3790">
    .st0{fill:#FFFFFF;}
    .st1{fill:#3F3B3A;}
    .st2{fill:#E41A15;}
    .st3{fill:#427BBF;}
    .st4{fill:#386AB3;}
</style>

<g
   id="g3820"
   transform="translate(-32.5,-35.4)">
    <g
   id="g3806">
        <path
   class="st1"
   d="m 268.6,89.3 v 0 c -0.3,0.8 -0.7,1.5 -1.1,2.1 -2.3,3.4 -5.7,5.2 -10.1,5.2 -4.8,0 -8.4,-1.6 -10.8,-4.9 -2.4,-3.3 -3.6,-7.5 -3.6,-12.8 0,-6.4 1.3,-11.2 4,-14.3 2.7,-3.1 6.2,-4.7 10.5,-4.7 3.6,0 6.3,0.9 8.3,2.5 0.8,0.7 1.5,1.5 2.1,2.4 h 6.3 c -0.7,-2.1 -1.9,-4 -3.7,-5.8 -3.1,-3 -7.5,-4.5 -13.1,-4.5 -6.6,0 -11.8,2.3 -15.5,6.9 -3.5,4.2 -5.2,9.7 -5.2,16.3 0,8.7 2.3,15.2 6.9,19.4 3.5,3.1 7.8,4.7 13,4.7 6,0 10.7,-1.9 14.2,-5.8 1.8,-2 3.1,-4.3 4,-6.8 v 0 l 0.9,-2.4 h -6.2 z"
   id="path3792"
   inkscape:connector-curvature="0"
   style="fill:#3f3b3a" />
        <polygon
   class="st1"
   points="301,55.8 294.1,55.8 277.2,100.7 283.4,100.7 297.3,62.5 304,81.8 294,81.8 292.2,86.9 305.8,86.9 310.6,100.7 317.3,100.7 "
   id="polygon3794"
   style="fill:#3f3b3a" />
        <path
   class="st1"
   d="m 350.9,77.9 c -2.2,2.6 -5.5,3.9 -10,3.9 h -10.2 v -5.1 h 8.2 c 2.7,0 4.9,-0.6 6.6,-1.7 1.7,-1.2 2.5,-3.2 2.5,-6.1 0,-3.3 -1.2,-5.5 -3.6,-6.7 -1.3,-0.6 -3.2,-0.9 -5.5,-0.9 h -12 V 101 h -6.1 V 55.8 h 20.1 c 4,0 7.2,1.1 9.6,3.4 2.4,2.3 3.7,5.4 3.7,9.5 0,3.5 -1.1,6.6 -3.3,9.2 z"
   id="path3796"
   inkscape:connector-curvature="0"
   style="fill:#3f3b3a" />
        <path
   class="st1"
   d="m 118.6,100.7 v -45 h 16.5 c 2.9,0 5.3,0.3 7.2,1 1.9,0.7 3.4,1.6 4.5,2.8 1.1,1.2 1.9,2.5 2.3,4 0.4,1.5 0.7,3.1 0.7,4.8 0,2.5 -0.5,4.6 -1.5,6.2 -1,1.6 -2.3,2.9 -4,3.9 -1.6,0.9 -3.5,1.6 -5.5,2 -2.1,0.4 -4.1,0.6 -6.2,0.6 H 123 v 19.9 h -4.4 z m 14,-23.5 c 2,0 3.8,-0.1 5.4,-0.4 1.6,-0.2 2.9,-0.7 4,-1.4 1.1,-0.7 2,-1.6 2.6,-2.8 0.6,-1.2 0.9,-2.8 0.9,-4.7 0,-2.8 -0.9,-5 -2.8,-6.4 -1.9,-1.5 -4.8,-2.2 -8.9,-2.2 h -11 v 17.9 z"
   id="path3798"
   inkscape:connector-curvature="0"
   style="fill:#3f3b3a" />
        <path
   class="st1"
   d="m 155.9,61.2 v -5.6 h 4.1 v 5.6 z m 0.1,39.5 V 68.3 h 3.8 v 32.4 z"
   id="path3800"
   inkscape:connector-curvature="0"
   style="fill:#3f3b3a" />
        <path
   class="st1"
   d="m 169.8,100.7 h -3.7 V 68.3 h 3.7 v 4.5 c 1.5,-1.6 3.1,-2.9 4.7,-3.9 1.6,-1 3.5,-1.5 5.8,-1.5 2,0 3.9,0.3 5.6,1 1.7,0.7 3.1,1.9 4.3,3.6 0.8,1.2 1.3,2.4 1.4,3.6 0.1,1.2 0.2,2.5 0.2,3.8 v 21.2 H 188 v -21 c 0,-2.9 -0.6,-5.1 -1.9,-6.6 -1.3,-1.5 -3.4,-2.2 -6.4,-2.2 -1.2,0 -2.2,0.2 -3.2,0.5 -1,0.4 -1.8,0.8 -2.6,1.4 -0.8,0.6 -1.4,1.2 -2,2 -0.5,0.8 -1,1.5 -1.3,2.4 -0.4,1 -0.6,2 -0.7,3 -0.1,1 -0.1,2 -0.1,3.1 z"
   id="path3802"
   inkscape:connector-curvature="0"
   style="fill:#3f3b3a" />
        <path
   class="st1"
   d="m 223.9,68.3 h 3.8 v 29.3 c 0,2.2 -0.2,4.2 -0.7,6.2 -0.4,2 -1.2,3.7 -2.3,5.2 -1.1,1.5 -2.7,2.7 -4.6,3.6 -2,0.9 -4.5,1.3 -7.6,1.3 -2.4,0 -4.4,-0.3 -6.1,-0.9 -1.7,-0.6 -3.1,-1.4 -4.2,-2.3 -1.1,-0.9 -1.9,-1.9 -2.5,-3 -0.6,-1.1 -0.9,-2.1 -0.9,-3.1 h 4 c 0.3,1.2 0.8,2.2 1.4,3 0.6,0.8 1.4,1.4 2.2,1.8 0.9,0.4 1.8,0.7 2.9,0.9 1,0.2 2.1,0.3 3.3,0.3 2.5,0 4.6,-0.4 6.1,-1.3 1.6,-0.9 2.7,-2 3.5,-3.4 0.8,-1.4 1.3,-3 1.5,-4.8 0.2,-1.8 0.3,-3.6 0.3,-5.5 -1.2,2 -2.9,3.5 -5,4.5 -2.1,1 -4.3,1.5 -6.6,1.5 -2.5,0 -4.6,-0.5 -6.4,-1.4 -1.8,-0.9 -3.3,-2.2 -4.5,-3.8 -1.2,-1.6 -2.1,-3.4 -2.7,-5.5 -0.6,-2.1 -0.9,-4.2 -0.9,-6.5 0,-2.4 0.3,-4.6 0.8,-6.7 0.5,-2.1 1.4,-3.9 2.6,-5.4 1.2,-1.5 2.7,-2.7 4.5,-3.6 1.8,-0.9 4.1,-1.3 6.7,-1.3 1,0 2.1,0.2 3.2,0.4 1.1,0.3 2.1,0.7 3.2,1.2 1,0.5 2,1.2 2.8,2.1 0.8,0.8 1.6,1.8 2.1,2.8 h 0.1 z m 0,16.3 c 0,-2 -0.2,-3.8 -0.7,-5.5 -0.5,-1.7 -1.2,-3.2 -2.1,-4.4 -0.9,-1.2 -2.1,-2.2 -3.5,-2.9 -1.4,-0.7 -2.9,-1.1 -4.7,-1.1 -1.6,0 -3,0.3 -4.4,0.8 -1.3,0.6 -2.5,1.4 -3.5,2.5 -1,1.1 -1.8,2.4 -2.3,4 -0.6,1.6 -0.8,3.4 -0.8,5.4 -0.1,2 0.1,4 0.5,5.7 0.4,1.8 1.1,3.3 2,4.7 0.9,1.3 2.1,2.4 3.5,3.2 1.4,0.8 3.1,1.2 5.1,1.2 1.7,0 3.3,-0.4 4.6,-1.1 1.4,-0.7 2.5,-1.7 3.4,-2.9 0.9,-1.2 1.7,-2.7 2.2,-4.3 0.4,-1.7 0.7,-3.4 0.7,-5.3 z"
   id="path3804"
   inkscape:connector-curvature="0"
   style="fill:#3f3b3a" />
    </g>
    <g
   id="g3818">
        <polygon
   class="st2"
   points="35.2,43.1 44.4,45.5 "
   id="polygon3808"
   style="fill:#e41a15" />
        <path
   class="st3"
   d="m 46.6,92.5 c -0.1,0 -0.2,0 -0.4,0 -1,0 -1.9,-0.8 -1.9,-1.9 V 45.5 L 35.1,43.1 34.7,43 c -0.1,0 -0.2,0 -0.3,0 -1,0 -1.9,0.8 -1.9,1.9 v 77.3 c 0,1 0.8,1.9 1.9,1.9 0.1,0 0.2,0 0.3,0 h 0.2 l 39.3,-10.4 0.5,-0.1 c 1.4,-0.5 2.4,-1.8 2.4,-3.4 V 84.4 Z"
   id="path3810"
   inkscape:connector-curvature="0"
   style="fill:#427bbf" />
        <polygon
   class="st2"
   points="44.4,45.5 74.1,53.4 "
   id="polygon3812"
   style="fill:#e41a15" />
        <path
   class="st4"
   d="M 74.9,53.6 74.1,53.4 44.4,45.5 v 45.2 c 0,1 0.8,1.9 1.9,1.9 0.1,0 0.3,0 0.4,0 v 0 L 77.2,84.5 V 56.9 c 0,-1.5 -1,-2.8 -2.3,-3.3 z"
   id="path3814"
   inkscape:connector-curvature="0"
   style="fill:#386ab3" />
        <path
   class="st3"
   d="M 93.9,47.9 93.3,47.7 47,35.5 46.6,35.4 c -0.1,0 -0.2,0 -0.3,0 -1,0 -1.9,0.8 -1.9,1.9 v 8.3 l 29.7,7.9 0.8,0.2 c 1.3,0.5 2.3,1.8 2.3,3.3 V 84.5 L 93.4,80.2 94,80 c 1.4,-0.5 2.4,-1.8 2.4,-3.3 V 51.2 c -0.2,-1.5 -1.1,-2.8 -2.5,-3.3 z"
   id="path3816"
   inkscape:connector-curvature="0"
   style="fill:#427bbf" />
    </g>
</g>
</svg>